# xmcd
#
# Track frame offsets: 
#        150
#        17726
#        39593
#        54855
#        68443
#        83780
#        103354
#        118494
#        137419
#        158658
#        180797
#        197844
#        217907
#        236226
#        261247
#
# Disc length: 3742 seconds
#
# Revision: 0
# Processed by: cddbd v1.5.2PL0 Copyright (c) Steve Scherf et al.
# Submitted via: ExactAudioCopy v1.0b3
#
DISCID=c80e9c0f
DTITLE=Perry and the Pumpers - Movin' At Midnight
DYEAR=2012
DGENRE=Blues
TTITLE0=Roberta
TTITLE1=I'm a Hog for You Baby
TTITLE2=Mess Around
TTITLE3=If You Love Me Like You Say
TTITLE4=Ain't That Just Like a Woman
TTITLE5=Got You On My Mind
TTITLE6=My Younger Days
TTITLE7=She's Murder
TTITLE8=Movin' At Midnight
TTITLE9=People Are Talking
TTITLE10=Let's Go, Let's Go, Let's Go
TTITLE11=Hello My Lover
TTITLE12=Hey Little Girl
TTITLE13=Hush Hush
TTITLE14=How Come My Bulldog Don't Bark?
EXTD=
EXTT0=
EXTT1=
EXTT2=
EXTT3=
EXTT4=
EXTT5=
EXTT6=
EXTT7=
EXTT8=
EXTT9=
EXTT10=
EXTT11=
EXTT12=
EXTT13=
EXTT14=
PLAYORDER=
